<?xml version="1.0" encoding="UTF-8" standalone="no"?>
<!DOCTYPE svg PUBLIC "-//W3C//DTD SVG 1.1//EN"
 "http://www.w3.org/Graphics/SVG/1.1/DTD/svg11.dtd">
<!-- Generated by graphviz version 12.2.1 (20241206.2353)
 -->
<!-- Title: Program Pages: 1 -->
<svg width="1288pt" height="1795pt"
 viewBox="0.00 0.00 1288.00 1795.00" xmlns="http://www.w3.org/2000/svg" xmlns:xlink="http://www.w3.org/1999/xlink">
<g id="graph0" class="graph" transform="scale(1 1) rotate(0) translate(4 1791)">
<title>Program</title>
<polygon fill="white" stroke="none" points="-4,4 -4,-1791 1284,-1791 1284,4 -4,4"/>
<g id="clust1" class="cluster">
<title>cluster_function_6</title>
<polygon fill="none" stroke="#75b560" points="8,-1009.5 8,-1526.5 486,-1526.5 486,-1009.5 8,-1009.5"/>
</g>
<g id="clust2" class="cluster">
<title>cluster_function_0</title>
<polygon fill="none" stroke="#75b560" points="494,-8 494,-1698 1272,-1698 1272,-8 494,-8"/>
</g>
<!-- __START_OF__start -->
<g id="node1" class="node">
<title>__START_OF__start</title>
<polygon fill="none" stroke="black" points="413.12,-1518.5 208.88,-1518.5 208.88,-1433 413.12,-1433 413.12,-1518.5"/>
<polygon fill="none" stroke="black" points="219.88,-1489 219.88,-1511.5 402.12,-1511.5 402.12,-1489 219.88,-1489"/>
<text text-anchor="start" x="222.88" y="-1495.2" font-family="Times,serif" font-size="14.00"> &#160;&#160;&#160;&#160;&#160;&#160;&#160;Function _start(id=6) &#160;&#160;&#160;&#160;&#160;&#160;&#160;</text>
<polygon fill="none" stroke="black" points="219.88,-1464.5 219.88,-1487 402.12,-1487 402.12,-1464.5 219.88,-1464.5"/>
<text text-anchor="start" x="245.75" y="-1470.7" font-family="Times,serif" font-size="14.00">Function local variables</text>
<polygon fill="none" stroke="black" points="219.88,-1440 219.88,-1462.5 402.12,-1462.5 402.12,-1440 219.88,-1440"/>
<text text-anchor="start" x="268.25" y="-1446.2" font-family="Times,serif" font-size="14.00"> &#160;&#160;&#160;&#160;&#160;&#160;&#160;Start &#160;&#160;&#160;&#160;&#160;&#160;&#160;</text>
<polygon fill="none" stroke="black" points="216.88,-1437 216.88,-1514.5 405.12,-1514.5 405.12,-1437 216.88,-1437"/>
</g>
<!-- __BASIC_BLOCK_0_IN_FUNC_6 -->
<g id="node2" class="node">
<title>__BASIC_BLOCK_0_IN_FUNC_6</title>
<polygon fill="none" stroke="black" points="477.88,-1225.5 16.12,-1225.5 16.12,-1017.5 477.88,-1017.5 477.88,-1225.5"/>
<polygon fill="none" stroke="black" points="27.12,-1196 27.12,-1218.5 466.88,-1218.5 466.88,-1196 27.12,-1196"/>
<text text-anchor="start" x="179.12" y="-1202.2" font-family="Times,serif" font-size="14.00"> &#160;&#160;&#160;&#160;&#160;&#160;&#160;BasicBlock_0 &#160;&#160;&#160;&#160;&#160;&#160;&#160;</text>
<polygon fill="none" stroke="black" points="27.12,-1171.5 27.12,-1194 466.88,-1194 466.88,-1171.5 27.12,-1171.5"/>
<text text-anchor="start" x="178.75" y="-1177.7" font-family="Times,serif" font-size="14.00"> &#160;&#160;&#160;&#160;&#160;&#160;&#160;PHI acceptors &#160;&#160;&#160;&#160;&#160;&#160;&#160;</text>
<polygon fill="none" stroke="black" points="27.12,-1147 27.12,-1169.5 466.88,-1169.5 466.88,-1147 27.12,-1147"/>
<text text-anchor="start" x="182.12" y="-1153.2" font-family="Times,serif" font-size="14.00"> &#160;&#160;&#160;&#160;&#160;&#160;&#160;Predecessors &#160;&#160;&#160;&#160;&#160;&#160;&#160;</text>
<polygon fill="none" stroke="black" points="27.12,-1122.5 27.12,-1145 466.88,-1145 466.88,-1122.5 27.12,-1122.5"/>
<text text-anchor="start" x="190.38" y="-1128.7" font-family="Times,serif" font-size="14.00"> &#160;&#160;&#160;&#160;&#160;&#160;&#160;Phi nodes &#160;&#160;&#160;&#160;&#160;&#160;&#160;</text>
<polygon fill="none" stroke="black" points="27.12,-1098 27.12,-1120.5 466.88,-1120.5 466.88,-1098 27.12,-1098"/>
<text text-anchor="start" x="185.12" y="-1104.2" font-family="Times,serif" font-size="14.00"> &#160;&#160;&#160;&#160;&#160;&#160;&#160;Instructions &#160;&#160;&#160;&#160;&#160;&#160;&#160;</text>
<polygon fill="none" stroke="black" points="27.12,-1073.5 27.12,-1096 153.88,-1096 153.88,-1073.5 27.12,-1073.5"/>
<text text-anchor="start" x="87.12" y="-1079.7" font-family="Times,serif" font-size="14.00">0</text>
<polygon fill="none" stroke="black" points="155.88,-1073.5 155.88,-1096 257.12,-1096 257.12,-1073.5 155.88,-1073.5"/>
<text text-anchor="start" x="158.88" y="-1079.7" font-family="Times,serif" font-size="14.00"> &#160;&#160;&#160;&#160;&#160;&#160;&#160;none() &#160;&#160;&#160;&#160;&#160;&#160;&#160;</text>
<polygon fill="none" stroke="black" points="259.12,-1073.5 259.12,-1096 466.88,-1096 466.88,-1073.5 259.12,-1073.5"/>
<text text-anchor="start" x="262.12" y="-1079.7" font-family="Times,serif" font-size="14.00"> &#160;&#160;&#160;&#160;&#160;&#160;&#160;call { func(main, id = 0)} &#160;&#160;&#160;&#160;&#160;&#160;&#160;</text>
<polygon fill="none" stroke="black" points="27.12,-1049 27.12,-1071.5 153.88,-1071.5 153.88,-1049 27.12,-1049"/>
<text text-anchor="start" x="87.12" y="-1055.2" font-family="Times,serif" font-size="14.00">1</text>
<polygon fill="none" stroke="black" points="155.88,-1049 155.88,-1071.5 257.12,-1071.5 257.12,-1049 155.88,-1049"/>
<text text-anchor="start" x="158.88" y="-1055.2" font-family="Times,serif" font-size="14.00"> &#160;&#160;&#160;&#160;&#160;&#160;&#160;none() &#160;&#160;&#160;&#160;&#160;&#160;&#160;</text>
<polygon fill="none" stroke="black" points="259.12,-1049 259.12,-1071.5 466.88,-1071.5 466.88,-1049 259.12,-1049"/>
<text text-anchor="start" x="312.38" y="-1055.2" font-family="Times,serif" font-size="14.00"> &#160;&#160;&#160;&#160;&#160;&#160;&#160;exit { } &#160;&#160;&#160;&#160;&#160;&#160;&#160;</text>
<polygon fill="none" stroke="black" points="27.12,-1024.5 27.12,-1047 153.88,-1047 153.88,-1024.5 27.12,-1024.5"/>
<text text-anchor="start" x="30.12" y="-1030.7" font-family="Times,serif" font-size="14.00"> &#160;&#160;&#160;&#160;&#160;&#160;&#160;Terminator &#160;&#160;&#160;&#160;&#160;&#160;&#160;</text>
<polygon fill="none" stroke="black" points="155.88,-1024.5 155.88,-1047 257.12,-1047 257.12,-1024.5 155.88,-1024.5"/>
<text text-anchor="start" x="187.38" y="-1030.7" font-family="Times,serif" font-size="14.00">Invalid</text>
<polygon fill="none" stroke="black" points="259.12,-1024.5 259.12,-1047 360.12,-1047 360.12,-1024.5 259.12,-1024.5"/>
<text text-anchor="start" x="267.25" y="-1030.7" font-family="Times,serif" font-size="14.00"> &#160;&#160;&#160;&#160;&#160;&#160;&#160;True &#160;&#160;&#160;&#160;&#160;&#160;&#160;</text>
<polygon fill="none" stroke="black" points="362.12,-1024.5 362.12,-1047 466.88,-1047 466.88,-1024.5 362.12,-1024.5"/>
<text text-anchor="start" x="370.25" y="-1030.7" font-family="Times,serif" font-size="14.00"> &#160;&#160;&#160;&#160;&#160;&#160;&#160;False &#160;&#160;&#160;&#160;&#160;&#160;&#160;</text>
<polygon fill="none" stroke="black" points="24.12,-1021.5 24.12,-1221.5 469.88,-1221.5 469.88,-1021.5 24.12,-1021.5"/>
</g>
<!-- __START_OF__start&#45;&gt;__BASIC_BLOCK_0_IN_FUNC_6 -->
<g id="edge2" class="edge">
<title>__START_OF__start:Next&#45;&gt;__BASIC_BLOCK_0_IN_FUNC_6:Prev</title>
<path fill="none" stroke="black" d="M311,-1439C311,-1341.25 251.78,-1322.48 247.27,-1230.75"/>
<polygon fill="black" stroke="black" points="250.78,-1230.93 247.04,-1221.01 243.78,-1231.09 250.78,-1230.93"/>
</g>
<!-- __START_OF_main -->
<g id="node3" class="node">
<title>__START_OF_main</title>
<polygon fill="none" stroke="black" points="798,-1690 596,-1690 596,-1261.5 798,-1261.5 798,-1690"/>
<polygon fill="none" stroke="black" points="607,-1660.5 607,-1683 787,-1683 787,-1660.5 607,-1660.5"/>
<text text-anchor="start" x="610" y="-1666.7" font-family="Times,serif" font-size="14.00"> &#160;&#160;&#160;&#160;&#160;&#160;&#160;Function main(id=0) &#160;&#160;&#160;&#160;&#160;&#160;&#160;</text>
<polygon fill="none" stroke="black" points="607,-1636 607,-1658.5 787,-1658.5 787,-1636 607,-1636"/>
<text text-anchor="start" x="631.75" y="-1642.2" font-family="Times,serif" font-size="14.00">Function local variables</text>
<polygon fill="none" stroke="black" points="607,-1611.5 607,-1634 787,-1634 787,-1611.5 607,-1611.5"/>
<text text-anchor="start" x="631" y="-1617.7" font-family="Times,serif" font-size="14.00">start_value: id=1, ver=0</text>
<polygon fill="none" stroke="black" points="607,-1587 607,-1609.5 787,-1609.5 787,-1587 607,-1587"/>
<text text-anchor="start" x="628" y="-1593.2" font-family="Times,serif" font-size="14.00">some_value: id=2, ver=0</text>
<polygon fill="none" stroke="black" points="607,-1562.5 607,-1585 787,-1585 787,-1562.5 607,-1562.5"/>
<text text-anchor="start" x="631" y="-1568.7" font-family="Times,serif" font-size="14.00">start_value: id=1, ver=1</text>
<polygon fill="none" stroke="black" points="607,-1538 607,-1560.5 787,-1560.5 787,-1538 607,-1538"/>
<text text-anchor="start" x="631" y="-1544.2" font-family="Times,serif" font-size="14.00">start_value: id=1, ver=2</text>
<polygon fill="none" stroke="black" points="607,-1513.5 607,-1536 787,-1536 787,-1513.5 607,-1513.5"/>
<text text-anchor="start" x="635.12" y="-1519.7" font-family="Times,serif" font-size="14.00">induction: id=3, ver=2</text>
<polygon fill="none" stroke="black" points="607,-1489 607,-1511.5 787,-1511.5 787,-1489 607,-1489"/>
<text text-anchor="start" x="636.25" y="-1495.2" font-family="Times,serif" font-size="14.00">__tmp_1: id=7, ver=2</text>
<polygon fill="none" stroke="black" points="607,-1464.5 607,-1487 787,-1487 787,-1464.5 607,-1464.5"/>
<text text-anchor="start" x="640.38" y="-1470.7" font-family="Times,serif" font-size="14.00">derived: id=4, ver=2</text>
<polygon fill="none" stroke="black" points="607,-1440 607,-1462.5 787,-1462.5 787,-1440 607,-1440"/>
<text text-anchor="start" x="636.25" y="-1446.2" font-family="Times,serif" font-size="14.00">__tmp_2: id=8, ver=2</text>
<polygon fill="none" stroke="black" points="607,-1415.5 607,-1438 787,-1438 787,-1415.5 607,-1415.5"/>
<text text-anchor="start" x="636.62" y="-1421.7" font-family="Times,serif" font-size="14.00">invariant: id=5, ver=2</text>
<polygon fill="none" stroke="black" points="607,-1391 607,-1413.5 787,-1413.5 787,-1391 607,-1391"/>
<text text-anchor="start" x="636.25" y="-1397.2" font-family="Times,serif" font-size="14.00">__tmp_3: id=9, ver=2</text>
<polygon fill="none" stroke="black" points="607,-1366.5 607,-1389 787,-1389 787,-1366.5 607,-1366.5"/>
<text text-anchor="start" x="632.88" y="-1372.7" font-family="Times,serif" font-size="14.00">__tmp_4: id=10, ver=2</text>
<polygon fill="none" stroke="black" points="607,-1342 607,-1364.5 787,-1364.5 787,-1342 607,-1342"/>
<text text-anchor="start" x="631" y="-1348.2" font-family="Times,serif" font-size="14.00">start_value: id=1, ver=3</text>
<polygon fill="none" stroke="black" points="607,-1317.5 607,-1340 787,-1340 787,-1317.5 607,-1317.5"/>
<text text-anchor="start" x="632.88" y="-1323.7" font-family="Times,serif" font-size="14.00">__tmp_5: id=11, ver=2</text>
<polygon fill="none" stroke="black" points="607,-1293 607,-1315.5 787,-1315.5 787,-1293 607,-1293"/>
<text text-anchor="start" x="635.12" y="-1299.2" font-family="Times,serif" font-size="14.00">induction: id=3, ver=3</text>
<polygon fill="none" stroke="black" points="607,-1268.5 607,-1291 787,-1291 787,-1268.5 607,-1268.5"/>
<text text-anchor="start" x="654.25" y="-1274.7" font-family="Times,serif" font-size="14.00"> &#160;&#160;&#160;&#160;&#160;&#160;&#160;Start &#160;&#160;&#160;&#160;&#160;&#160;&#160;</text>
<polygon fill="none" stroke="black" points="604,-1265.5 604,-1686 790,-1686 790,-1265.5 604,-1265.5"/>
</g>
<!-- __BASIC_BLOCK_0_IN_FUNC_0 -->
<g id="node4" class="node">
<title>__BASIC_BLOCK_0_IN_FUNC_0</title>
<polygon fill="none" stroke="black" points="1080.38,-1225.5 501.62,-1225.5 501.62,-1017.5 1080.38,-1017.5 1080.38,-1225.5"/>
<polygon fill="none" stroke="black" points="512.62,-1196 512.62,-1218.5 1069.38,-1218.5 1069.38,-1196 512.62,-1196"/>
<text text-anchor="start" x="723.12" y="-1202.2" font-family="Times,serif" font-size="14.00"> &#160;&#160;&#160;&#160;&#160;&#160;&#160;BasicBlock_0 &#160;&#160;&#160;&#160;&#160;&#160;&#160;</text>
<polygon fill="none" stroke="black" points="512.62,-1171.5 512.62,-1194 1069.38,-1194 1069.38,-1171.5 512.62,-1171.5"/>
<text text-anchor="start" x="722.75" y="-1177.7" font-family="Times,serif" font-size="14.00"> &#160;&#160;&#160;&#160;&#160;&#160;&#160;PHI acceptors &#160;&#160;&#160;&#160;&#160;&#160;&#160;</text>
<polygon fill="none" stroke="black" points="512.62,-1147 512.62,-1169.5 1069.38,-1169.5 1069.38,-1147 512.62,-1147"/>
<text text-anchor="start" x="726.12" y="-1153.2" font-family="Times,serif" font-size="14.00"> &#160;&#160;&#160;&#160;&#160;&#160;&#160;Predecessors &#160;&#160;&#160;&#160;&#160;&#160;&#160;</text>
<polygon fill="none" stroke="black" points="512.62,-1122.5 512.62,-1145 1069.38,-1145 1069.38,-1122.5 512.62,-1122.5"/>
<text text-anchor="start" x="734.38" y="-1128.7" font-family="Times,serif" font-size="14.00"> &#160;&#160;&#160;&#160;&#160;&#160;&#160;Phi nodes &#160;&#160;&#160;&#160;&#160;&#160;&#160;</text>
<polygon fill="none" stroke="black" points="512.62,-1098 512.62,-1120.5 1069.38,-1120.5 1069.38,-1098 512.62,-1098"/>
<text text-anchor="start" x="729.12" y="-1104.2" font-family="Times,serif" font-size="14.00"> &#160;&#160;&#160;&#160;&#160;&#160;&#160;Instructions &#160;&#160;&#160;&#160;&#160;&#160;&#160;</text>
<polygon fill="none" stroke="black" points="512.62,-1073.5 512.62,-1096 639.38,-1096 639.38,-1073.5 512.62,-1073.5"/>
<text text-anchor="start" x="572.62" y="-1079.7" font-family="Times,serif" font-size="14.00">0</text>
<polygon fill="none" stroke="black" points="641.38,-1073.5 641.38,-1096 849.88,-1096 849.88,-1073.5 641.38,-1073.5"/>
<text text-anchor="start" x="647.38" y="-1079.7" font-family="Times,serif" font-size="14.00"> &#160;&#160;&#160;&#160;&#160;&#160;&#160;var(start_value.0, id = 1) &#160;&#160;&#160;&#160;&#160;&#160;&#160;</text>
<polygon fill="none" stroke="black" points="851.88,-1073.5 851.88,-1096 1069.38,-1096 1069.38,-1073.5 851.88,-1073.5"/>
<text text-anchor="start" x="874.38" y="-1079.7" font-family="Times,serif" font-size="14.00"> &#160;&#160;&#160;&#160;&#160;&#160;&#160;input { str(Start = )} &#160;&#160;&#160;&#160;&#160;&#160;&#160;</text>
<polygon fill="none" stroke="black" points="512.62,-1049 512.62,-1071.5 639.38,-1071.5 639.38,-1049 512.62,-1049"/>
<text text-anchor="start" x="572.62" y="-1055.2" font-family="Times,serif" font-size="14.00">1</text>
<polygon fill="none" stroke="black" points="641.38,-1049 641.38,-1071.5 849.88,-1071.5 849.88,-1049 641.38,-1049"/>
<text text-anchor="start" x="644.38" y="-1055.2" font-family="Times,serif" font-size="14.00"> &#160;&#160;&#160;&#160;&#160;&#160;&#160;var(some_value.0, id = 2) &#160;&#160;&#160;&#160;&#160;&#160;&#160;</text>
<polygon fill="none" stroke="black" points="851.88,-1049 851.88,-1071.5 1069.38,-1071.5 1069.38,-1049 851.88,-1049"/>
<text text-anchor="start" x="854.88" y="-1055.2" font-family="Times,serif" font-size="14.00"> &#160;&#160;&#160;&#160;&#160;&#160;&#160;input { str(Some value = )} &#160;&#160;&#160;&#160;&#160;&#160;&#160;</text>
<polygon fill="none" stroke="black" points="512.62,-1024.5 512.62,-1047 639.38,-1047 639.38,-1024.5 512.62,-1024.5"/>
<text text-anchor="start" x="515.62" y="-1030.7" font-family="Times,serif" font-size="14.00"> &#160;&#160;&#160;&#160;&#160;&#160;&#160;Terminator &#160;&#160;&#160;&#160;&#160;&#160;&#160;</text>
<polygon fill="none" stroke="black" points="641.38,-1024.5 641.38,-1047 849.88,-1047 849.88,-1024.5 641.38,-1024.5"/>
<text text-anchor="start" x="732.88" y="-1030.7" font-family="Times,serif" font-size="14.00">True</text>
<polygon fill="none" stroke="black" points="851.88,-1024.5 851.88,-1047 957.75,-1047 957.75,-1024.5 851.88,-1024.5"/>
<text text-anchor="start" x="862.44" y="-1030.7" font-family="Times,serif" font-size="14.00"> &#160;&#160;&#160;&#160;&#160;&#160;&#160;True &#160;&#160;&#160;&#160;&#160;&#160;&#160;</text>
<polygon fill="none" stroke="black" points="959.75,-1024.5 959.75,-1047 1069.38,-1047 1069.38,-1024.5 959.75,-1024.5"/>
<text text-anchor="start" x="970.31" y="-1030.7" font-family="Times,serif" font-size="14.00"> &#160;&#160;&#160;&#160;&#160;&#160;&#160;False &#160;&#160;&#160;&#160;&#160;&#160;&#160;</text>
<polygon fill="none" stroke="black" points="509.62,-1021.5 509.62,-1221.5 1072.38,-1221.5 1072.38,-1021.5 509.62,-1021.5"/>
</g>
<!-- __START_OF_main&#45;&gt;__BASIC_BLOCK_0_IN_FUNC_0 -->
<g id="edge4" class="edge">
<title>__START_OF_main:Next&#45;&gt;__BASIC_BLOCK_0_IN_FUNC_0:Prev</title>
<path fill="none" stroke="black" d="M788,-1279.75C811.15,-1279.75 796.56,-1254.83 792.15,-1230.77"/>
<polygon fill="black" stroke="black" points="795.65,-1230.6 791.15,-1221.01 788.68,-1231.31 795.65,-1230.6"/>
</g>
<!-- __BASIC_BLOCK_1_IN_FUNC_0 -->
<g id="node5" class="node">
<title>__BASIC_BLOCK_1_IN_FUNC_0</title>
<polygon fill="none" stroke="black" points="1062.75,-981.5 691.25,-981.5 691.25,-798 1062.75,-798 1062.75,-981.5"/>
<polygon fill="none" stroke="black" points="702.25,-952 702.25,-974.5 1051.75,-974.5 1051.75,-952 702.25,-952"/>
<text text-anchor="start" x="809.12" y="-958.2" font-family="Times,serif" font-size="14.00"> &#160;&#160;&#160;&#160;&#160;&#160;&#160;BasicBlock_1 &#160;&#160;&#160;&#160;&#160;&#160;&#160;</text>
<polygon fill="none" stroke="black" points="702.25,-927.5 702.25,-950 1051.75,-950 1051.75,-927.5 702.25,-927.5"/>
<text text-anchor="start" x="808.75" y="-933.7" font-family="Times,serif" font-size="14.00"> &#160;&#160;&#160;&#160;&#160;&#160;&#160;PHI acceptors &#160;&#160;&#160;&#160;&#160;&#160;&#160;</text>
<polygon fill="none" stroke="black" points="702.25,-903 702.25,-925.5 1051.75,-925.5 1051.75,-903 702.25,-903"/>
<text text-anchor="start" x="809.12" y="-909.2" font-family="Times,serif" font-size="14.00"> &#160;&#160;&#160;&#160;&#160;&#160;&#160;BasicBlock_2 &#160;&#160;&#160;&#160;&#160;&#160;&#160;</text>
<polygon fill="none" stroke="black" points="702.25,-878.5 702.25,-901 1051.75,-901 1051.75,-878.5 702.25,-878.5"/>
<text text-anchor="start" x="812.12" y="-884.7" font-family="Times,serif" font-size="14.00"> &#160;&#160;&#160;&#160;&#160;&#160;&#160;Predecessors &#160;&#160;&#160;&#160;&#160;&#160;&#160;</text>
<polygon fill="none" stroke="black" points="702.25,-854 702.25,-876.5 1051.75,-876.5 1051.75,-854 702.25,-854"/>
<text text-anchor="start" x="820.38" y="-860.2" font-family="Times,serif" font-size="14.00"> &#160;&#160;&#160;&#160;&#160;&#160;&#160;Phi nodes &#160;&#160;&#160;&#160;&#160;&#160;&#160;</text>
<polygon fill="none" stroke="black" points="702.25,-829.5 702.25,-852 1051.75,-852 1051.75,-829.5 702.25,-829.5"/>
<text text-anchor="start" x="815.12" y="-835.7" font-family="Times,serif" font-size="14.00"> &#160;&#160;&#160;&#160;&#160;&#160;&#160;Instructions &#160;&#160;&#160;&#160;&#160;&#160;&#160;</text>
<polygon fill="none" stroke="black" points="702.25,-805 702.25,-827.5 829,-827.5 829,-805 702.25,-805"/>
<text text-anchor="start" x="705.25" y="-811.2" font-family="Times,serif" font-size="14.00"> &#160;&#160;&#160;&#160;&#160;&#160;&#160;Terminator &#160;&#160;&#160;&#160;&#160;&#160;&#160;</text>
<polygon fill="none" stroke="black" points="831,-805 831,-827.5 862.5,-827.5 862.5,-805 831,-805"/>
<text text-anchor="start" x="834" y="-811.2" font-family="Times,serif" font-size="14.00">True</text>
<polygon fill="none" stroke="black" points="864.5,-805 864.5,-827.5 955.25,-827.5 955.25,-805 864.5,-805"/>
<text text-anchor="start" x="867.5" y="-811.2" font-family="Times,serif" font-size="14.00"> &#160;&#160;&#160;&#160;&#160;&#160;&#160;True &#160;&#160;&#160;&#160;&#160;&#160;&#160;</text>
<polygon fill="none" stroke="black" points="957.25,-805 957.25,-827.5 1051.75,-827.5 1051.75,-805 957.25,-805"/>
<text text-anchor="start" x="960.25" y="-811.2" font-family="Times,serif" font-size="14.00"> &#160;&#160;&#160;&#160;&#160;&#160;&#160;False &#160;&#160;&#160;&#160;&#160;&#160;&#160;</text>
<polygon fill="none" stroke="black" points="699.25,-802 699.25,-977.5 1054.75,-977.5 1054.75,-802 699.25,-802"/>
</g>
<!-- __BASIC_BLOCK_0_IN_FUNC_0&#45;&gt;__BASIC_BLOCK_1_IN_FUNC_0 -->
<g id="edge5" class="edge">
<title>__BASIC_BLOCK_0_IN_FUNC_0:True&#45;&gt;__BASIC_BLOCK_1_IN_FUNC_0:Prev</title>
<path fill="none" stroke="black" d="M904.81,-1023.5C904.81,-1003.27 886.1,-1000.52 879.37,-986.58"/>
<polygon fill="black" stroke="black" points="882.83,-986.03 877.32,-976.98 875.99,-987.49 882.83,-986.03"/>
</g>
<!-- __BASIC_BLOCK_2_IN_FUNC_0 -->
<g id="node6" class="node">
<title>__BASIC_BLOCK_2_IN_FUNC_0</title>
<polygon fill="none" stroke="black" points="1264.46,-762 501.54,-762 501.54,-284.5 1264.46,-284.5 1264.46,-762"/>
<polygon fill="none" stroke="black" points="512.54,-732.5 512.54,-755 1253.46,-755 1253.46,-732.5 512.54,-732.5"/>
<text text-anchor="start" x="815.12" y="-738.7" font-family="Times,serif" font-size="14.00"> &#160;&#160;&#160;&#160;&#160;&#160;&#160;BasicBlock_2 &#160;&#160;&#160;&#160;&#160;&#160;&#160;</text>
<polygon fill="none" stroke="black" points="512.54,-708 512.54,-730.5 1253.46,-730.5 1253.46,-708 512.54,-708"/>
<text text-anchor="start" x="814.75" y="-714.2" font-family="Times,serif" font-size="14.00"> &#160;&#160;&#160;&#160;&#160;&#160;&#160;PHI acceptors &#160;&#160;&#160;&#160;&#160;&#160;&#160;</text>
<polygon fill="none" stroke="black" points="512.54,-683.5 512.54,-706 1253.46,-706 1253.46,-683.5 512.54,-683.5"/>
<text text-anchor="start" x="815.12" y="-689.7" font-family="Times,serif" font-size="14.00"> &#160;&#160;&#160;&#160;&#160;&#160;&#160;BasicBlock_2 &#160;&#160;&#160;&#160;&#160;&#160;&#160;</text>
<polygon fill="none" stroke="black" points="512.54,-659 512.54,-681.5 1253.46,-681.5 1253.46,-659 512.54,-659"/>
<text text-anchor="start" x="815.12" y="-665.2" font-family="Times,serif" font-size="14.00"> &#160;&#160;&#160;&#160;&#160;&#160;&#160;BasicBlock_3 &#160;&#160;&#160;&#160;&#160;&#160;&#160;</text>
<polygon fill="none" stroke="black" points="512.54,-634.5 512.54,-657 1253.46,-657 1253.46,-634.5 512.54,-634.5"/>
<text text-anchor="start" x="818.12" y="-640.7" font-family="Times,serif" font-size="14.00"> &#160;&#160;&#160;&#160;&#160;&#160;&#160;Predecessors &#160;&#160;&#160;&#160;&#160;&#160;&#160;</text>
<polygon fill="none" stroke="black" points="512.54,-610 512.54,-632.5 1253.46,-632.5 1253.46,-610 512.54,-610"/>
<text text-anchor="start" x="826.38" y="-616.2" font-family="Times,serif" font-size="14.00"> &#160;&#160;&#160;&#160;&#160;&#160;&#160;Phi nodes &#160;&#160;&#160;&#160;&#160;&#160;&#160;</text>
<polygon fill="none" stroke="black" points="512.54,-585.5 512.54,-608 655.04,-608 655.04,-585.5 512.54,-585.5"/>
<text text-anchor="start" x="515.54" y="-591.7" font-family="Times,serif" font-size="14.00">var(start_value.2, id = 1)</text>
<polygon fill="none" stroke="black" points="657.04,-585.5 657.04,-608 1253.46,-608 1253.46,-585.5 657.04,-585.5"/>
<text text-anchor="start" x="730.25" y="-591.7" font-family="Times,serif" font-size="14.00"> &#160;&#160;&#160;&#160;&#160;&#160;&#160;PHI{ var(start_value.3, id = 1):BB_2 var(start_value.0, id = 1):BB_1 } &#160;&#160;&#160;&#160;&#160;&#160;&#160;</text>
<polygon fill="none" stroke="black" points="512.54,-561 512.54,-583.5 655.04,-583.5 655.04,-561 512.54,-561"/>
<text text-anchor="start" x="519.67" y="-567.2" font-family="Times,serif" font-size="14.00">var(induction.2, id = 3)</text>
<polygon fill="none" stroke="black" points="657.04,-561 657.04,-583.5 1253.46,-583.5 1253.46,-561 657.04,-561"/>
<text text-anchor="start" x="781.62" y="-567.2" font-family="Times,serif" font-size="14.00"> &#160;&#160;&#160;&#160;&#160;&#160;&#160;PHI{ var(induction.3, id = 3):BB_2 imm(0):BB_1 } &#160;&#160;&#160;&#160;&#160;&#160;&#160;</text>
<polygon fill="none" stroke="black" points="512.54,-536.5 512.54,-559 1253.46,-559 1253.46,-536.5 512.54,-536.5"/>
<text text-anchor="start" x="821.12" y="-542.7" font-family="Times,serif" font-size="14.00"> &#160;&#160;&#160;&#160;&#160;&#160;&#160;Instructions &#160;&#160;&#160;&#160;&#160;&#160;&#160;</text>
<polygon fill="none" stroke="black" points="512.54,-512 512.54,-534.5 655.04,-534.5 655.04,-512 512.54,-512"/>
<text text-anchor="start" x="580.42" y="-518.2" font-family="Times,serif" font-size="14.00">0</text>
<polygon fill="none" stroke="black" points="657.04,-512 657.04,-534.5 880.96,-534.5 880.96,-512 657.04,-512"/>
<text text-anchor="start" x="676" y="-518.2" font-family="Times,serif" font-size="14.00"> &#160;&#160;&#160;&#160;&#160;&#160;&#160;var(__tmp_1.2, id = 7) &#160;&#160;&#160;&#160;&#160;&#160;&#160;</text>
<polygon fill="none" stroke="black" points="882.96,-512 882.96,-534.5 1253.46,-534.5 1253.46,-512 882.96,-512"/>
<text text-anchor="start" x="927.96" y="-518.2" font-family="Times,serif" font-size="14.00"> &#160;&#160;&#160;&#160;&#160;&#160;&#160;mul { var(induction.2, id = 3), imm(2)} &#160;&#160;&#160;&#160;&#160;&#160;&#160;</text>
<polygon fill="none" stroke="black" points="512.54,-487.5 512.54,-510 655.04,-510 655.04,-487.5 512.54,-487.5"/>
<text text-anchor="start" x="580.42" y="-493.7" font-family="Times,serif" font-size="14.00">1</text>
<polygon fill="none" stroke="black" points="657.04,-487.5 657.04,-510 880.96,-510 880.96,-487.5 657.04,-487.5"/>
<text text-anchor="start" x="680.12" y="-493.7" font-family="Times,serif" font-size="14.00"> &#160;&#160;&#160;&#160;&#160;&#160;&#160;var(derived.2, id = 4) &#160;&#160;&#160;&#160;&#160;&#160;&#160;</text>
<polygon fill="none" stroke="black" points="882.96,-487.5 882.96,-510 1253.46,-510 1253.46,-487.5 882.96,-487.5"/>
<text text-anchor="start" x="952.33" y="-493.7" font-family="Times,serif" font-size="14.00"> &#160;&#160;&#160;&#160;&#160;&#160;&#160;mov { var(__tmp_1.2, id = 7)} &#160;&#160;&#160;&#160;&#160;&#160;&#160;</text>
<polygon fill="none" stroke="black" points="512.54,-463 512.54,-485.5 655.04,-485.5 655.04,-463 512.54,-463"/>
<text text-anchor="start" x="580.42" y="-469.2" font-family="Times,serif" font-size="14.00">2</text>
<polygon fill="none" stroke="black" points="657.04,-463 657.04,-485.5 880.96,-485.5 880.96,-463 657.04,-463"/>
<text text-anchor="start" x="676" y="-469.2" font-family="Times,serif" font-size="14.00"> &#160;&#160;&#160;&#160;&#160;&#160;&#160;var(__tmp_2.2, id = 8) &#160;&#160;&#160;&#160;&#160;&#160;&#160;</text>
<polygon fill="none" stroke="black" points="882.96,-463 882.96,-485.5 1253.46,-485.5 1253.46,-463 882.96,-463"/>
<text text-anchor="start" x="917.46" y="-469.2" font-family="Times,serif" font-size="14.00"> &#160;&#160;&#160;&#160;&#160;&#160;&#160;mul { var(some_value.0, id = 2), imm(10)} &#160;&#160;&#160;&#160;&#160;&#160;&#160;</text>
<polygon fill="none" stroke="black" points="512.54,-438.5 512.54,-461 655.04,-461 655.04,-438.5 512.54,-438.5"/>
<text text-anchor="start" x="580.42" y="-444.7" font-family="Times,serif" font-size="14.00">3</text>
<polygon fill="none" stroke="black" points="657.04,-438.5 657.04,-461 880.96,-461 880.96,-438.5 657.04,-438.5"/>
<text text-anchor="start" x="676.38" y="-444.7" font-family="Times,serif" font-size="14.00"> &#160;&#160;&#160;&#160;&#160;&#160;&#160;var(invariant.2, id = 5) &#160;&#160;&#160;&#160;&#160;&#160;&#160;</text>
<polygon fill="none" stroke="black" points="882.96,-438.5 882.96,-461 1253.46,-461 1253.46,-438.5 882.96,-438.5"/>
<text text-anchor="start" x="952.33" y="-444.7" font-family="Times,serif" font-size="14.00"> &#160;&#160;&#160;&#160;&#160;&#160;&#160;mov { var(__tmp_2.2, id = 8)} &#160;&#160;&#160;&#160;&#160;&#160;&#160;</text>
<polygon fill="none" stroke="black" points="512.54,-414 512.54,-436.5 655.04,-436.5 655.04,-414 512.54,-414"/>
<text text-anchor="start" x="580.42" y="-420.2" font-family="Times,serif" font-size="14.00">4</text>
<polygon fill="none" stroke="black" points="657.04,-414 657.04,-436.5 880.96,-436.5 880.96,-414 657.04,-414"/>
<text text-anchor="start" x="676" y="-420.2" font-family="Times,serif" font-size="14.00"> &#160;&#160;&#160;&#160;&#160;&#160;&#160;var(__tmp_3.2, id = 9) &#160;&#160;&#160;&#160;&#160;&#160;&#160;</text>
<polygon fill="none" stroke="black" points="882.96,-414 882.96,-436.5 1253.46,-436.5 1253.46,-414 882.96,-414"/>
<text text-anchor="start" x="885.96" y="-420.2" font-family="Times,serif" font-size="14.00"> &#160;&#160;&#160;&#160;&#160;&#160;&#160;mul { var(start_value.2, id = 1), var(derived.2, id = 4)} &#160;&#160;&#160;&#160;&#160;&#160;&#160;</text>
<polygon fill="none" stroke="black" points="512.54,-389.5 512.54,-412 655.04,-412 655.04,-389.5 512.54,-389.5"/>
<text text-anchor="start" x="580.42" y="-395.7" font-family="Times,serif" font-size="14.00">5</text>
<polygon fill="none" stroke="black" points="657.04,-389.5 657.04,-412 880.96,-412 880.96,-389.5 657.04,-389.5"/>
<text text-anchor="start" x="672.62" y="-395.7" font-family="Times,serif" font-size="14.00"> &#160;&#160;&#160;&#160;&#160;&#160;&#160;var(__tmp_4.2, id = 10) &#160;&#160;&#160;&#160;&#160;&#160;&#160;</text>
<polygon fill="none" stroke="black" points="882.96,-389.5 882.96,-412 1253.46,-412 1253.46,-389.5 882.96,-389.5"/>
<text text-anchor="start" x="888.58" y="-395.7" font-family="Times,serif" font-size="14.00"> &#160;&#160;&#160;&#160;&#160;&#160;&#160;add { var(__tmp_3.2, id = 9), var(invariant.2, id = 5)} &#160;&#160;&#160;&#160;&#160;&#160;&#160;</text>
<polygon fill="none" stroke="black" points="512.54,-365 512.54,-387.5 655.04,-387.5 655.04,-365 512.54,-365"/>
<text text-anchor="start" x="580.42" y="-371.2" font-family="Times,serif" font-size="14.00">6</text>
<polygon fill="none" stroke="black" points="657.04,-365 657.04,-387.5 880.96,-387.5 880.96,-365 657.04,-365"/>
<text text-anchor="start" x="670.75" y="-371.2" font-family="Times,serif" font-size="14.00"> &#160;&#160;&#160;&#160;&#160;&#160;&#160;var(start_value.3, id = 1) &#160;&#160;&#160;&#160;&#160;&#160;&#160;</text>
<polygon fill="none" stroke="black" points="882.96,-365 882.96,-387.5 1253.46,-387.5 1253.46,-365 882.96,-365"/>
<text text-anchor="start" x="948.96" y="-371.2" font-family="Times,serif" font-size="14.00"> &#160;&#160;&#160;&#160;&#160;&#160;&#160;mov { var(__tmp_4.2, id = 10)} &#160;&#160;&#160;&#160;&#160;&#160;&#160;</text>
<polygon fill="none" stroke="black" points="512.54,-340.5 512.54,-363 655.04,-363 655.04,-340.5 512.54,-340.5"/>
<text text-anchor="start" x="580.42" y="-346.7" font-family="Times,serif" font-size="14.00">7</text>
<polygon fill="none" stroke="black" points="657.04,-340.5 657.04,-363 880.96,-363 880.96,-340.5 657.04,-340.5"/>
<text text-anchor="start" x="672.62" y="-346.7" font-family="Times,serif" font-size="14.00"> &#160;&#160;&#160;&#160;&#160;&#160;&#160;var(__tmp_5.2, id = 11) &#160;&#160;&#160;&#160;&#160;&#160;&#160;</text>
<polygon fill="none" stroke="black" points="882.96,-340.5 882.96,-363 1253.46,-363 1253.46,-340.5 882.96,-340.5"/>
<text text-anchor="start" x="929.08" y="-346.7" font-family="Times,serif" font-size="14.00"> &#160;&#160;&#160;&#160;&#160;&#160;&#160;add { var(induction.2, id = 3), imm(1)} &#160;&#160;&#160;&#160;&#160;&#160;&#160;</text>
<polygon fill="none" stroke="black" points="512.54,-316 512.54,-338.5 655.04,-338.5 655.04,-316 512.54,-316"/>
<text text-anchor="start" x="580.42" y="-322.2" font-family="Times,serif" font-size="14.00">8</text>
<polygon fill="none" stroke="black" points="657.04,-316 657.04,-338.5 880.96,-338.5 880.96,-316 657.04,-316"/>
<text text-anchor="start" x="674.88" y="-322.2" font-family="Times,serif" font-size="14.00"> &#160;&#160;&#160;&#160;&#160;&#160;&#160;var(induction.3, id = 3) &#160;&#160;&#160;&#160;&#160;&#160;&#160;</text>
<polygon fill="none" stroke="black" points="882.96,-316 882.96,-338.5 1253.46,-338.5 1253.46,-316 882.96,-316"/>
<text text-anchor="start" x="948.96" y="-322.2" font-family="Times,serif" font-size="14.00"> &#160;&#160;&#160;&#160;&#160;&#160;&#160;mov { var(__tmp_5.2, id = 11)} &#160;&#160;&#160;&#160;&#160;&#160;&#160;</text>
<polygon fill="none" stroke="black" points="512.54,-291.5 512.54,-314 655.04,-314 655.04,-291.5 512.54,-291.5"/>
<text text-anchor="start" x="523.42" y="-297.7" font-family="Times,serif" font-size="14.00"> &#160;&#160;&#160;&#160;&#160;&#160;&#160;Terminator &#160;&#160;&#160;&#160;&#160;&#160;&#160;</text>
<polygon fill="none" stroke="black" points="657.04,-291.5 657.04,-314 880.96,-314 880.96,-291.5 657.04,-291.5"/>
<text text-anchor="start" x="672.62" y="-297.7" font-family="Times,serif" font-size="14.00">var(induction.3, id = 3) &lt; imm(10)</text>
<polygon fill="none" stroke="black" points="882.96,-291.5 882.96,-314 1065.33,-314 1065.33,-291.5 882.96,-291.5"/>
<text text-anchor="start" x="931.77" y="-297.7" font-family="Times,serif" font-size="14.00"> &#160;&#160;&#160;&#160;&#160;&#160;&#160;True &#160;&#160;&#160;&#160;&#160;&#160;&#160;</text>
<polygon fill="none" stroke="black" points="1067.33,-291.5 1067.33,-314 1253.46,-314 1253.46,-291.5 1067.33,-291.5"/>
<text text-anchor="start" x="1116.15" y="-297.7" font-family="Times,serif" font-size="14.00"> &#160;&#160;&#160;&#160;&#160;&#160;&#160;False &#160;&#160;&#160;&#160;&#160;&#160;&#160;</text>
<polygon fill="none" stroke="black" points="509.54,-288.5 509.54,-758 1256.46,-758 1256.46,-288.5 509.54,-288.5"/>
</g>
<!-- __BASIC_BLOCK_1_IN_FUNC_0&#45;&gt;__BASIC_BLOCK_2_IN_FUNC_0 -->
<g id="edge6" class="edge">
<title>__BASIC_BLOCK_1_IN_FUNC_0:True&#45;&gt;__BASIC_BLOCK_2_IN_FUNC_0:Prev</title>
<path fill="none" stroke="black" d="M909.88,-804C909.88,-783.94 891.79,-780.94 885.29,-767.02"/>
<polygon fill="black" stroke="black" points="888.77,-766.56 883.31,-757.48 881.92,-767.99 888.77,-766.56"/>
</g>
<!-- __BASIC_BLOCK_2_IN_FUNC_0&#45;&gt;__BASIC_BLOCK_2_IN_FUNC_0 -->
<g id="edge7" class="edge">
<title>__BASIC_BLOCK_2_IN_FUNC_0:True&#45;&gt;__BASIC_BLOCK_2_IN_FUNC_0:Prev</title>
<path fill="none" stroke="black" d="M974.79,-313.69C983.11,-467.62 981.81,-945.25 928.57,-945.25 878.89,-945.25 874.44,-844.02 880.83,-766.01"/>
<polygon fill="black" stroke="black" points="884.3,-766.47 881.71,-756.19 877.33,-765.84 884.3,-766.47"/>
</g>
<!-- __BASIC_BLOCK_3_IN_FUNC_0 -->
<g id="node7" class="node">
<title>__BASIC_BLOCK_3_IN_FUNC_0</title>
<polygon fill="none" stroke="black" points="1264,-248.5 656,-248.5 656,-16 1264,-16 1264,-248.5"/>
<polygon fill="none" stroke="black" points="667,-219 667,-241.5 1253,-241.5 1253,-219 667,-219"/>
<text text-anchor="start" x="892.12" y="-225.2" font-family="Times,serif" font-size="14.00"> &#160;&#160;&#160;&#160;&#160;&#160;&#160;BasicBlock_3 &#160;&#160;&#160;&#160;&#160;&#160;&#160;</text>
<polygon fill="none" stroke="black" points="667,-194.5 667,-217 1253,-217 1253,-194.5 667,-194.5"/>
<text text-anchor="start" x="891.75" y="-200.7" font-family="Times,serif" font-size="14.00"> &#160;&#160;&#160;&#160;&#160;&#160;&#160;PHI acceptors &#160;&#160;&#160;&#160;&#160;&#160;&#160;</text>
<polygon fill="none" stroke="black" points="667,-170 667,-192.5 1253,-192.5 1253,-170 667,-170"/>
<text text-anchor="start" x="895.12" y="-176.2" font-family="Times,serif" font-size="14.00"> &#160;&#160;&#160;&#160;&#160;&#160;&#160;Predecessors &#160;&#160;&#160;&#160;&#160;&#160;&#160;</text>
<polygon fill="none" stroke="black" points="667,-145.5 667,-168 1253,-168 1253,-145.5 667,-145.5"/>
<text text-anchor="start" x="903.38" y="-151.7" font-family="Times,serif" font-size="14.00"> &#160;&#160;&#160;&#160;&#160;&#160;&#160;Phi nodes &#160;&#160;&#160;&#160;&#160;&#160;&#160;</text>
<polygon fill="none" stroke="black" points="667,-121 667,-143.5 809.5,-143.5 809.5,-121 667,-121"/>
<text text-anchor="start" x="670" y="-127.2" font-family="Times,serif" font-size="14.00">var(start_value.1, id = 1)</text>
<polygon fill="none" stroke="black" points="811.5,-121 811.5,-143.5 1253,-143.5 1253,-121 811.5,-121"/>
<text text-anchor="start" x="895" y="-127.2" font-family="Times,serif" font-size="14.00"> &#160;&#160;&#160;&#160;&#160;&#160;&#160;PHI{ var(start_value.3, id = 1):BB_2 } &#160;&#160;&#160;&#160;&#160;&#160;&#160;</text>
<polygon fill="none" stroke="black" points="667,-96.5 667,-119 1253,-119 1253,-96.5 667,-96.5"/>
<text text-anchor="start" x="898.12" y="-102.7" font-family="Times,serif" font-size="14.00"> &#160;&#160;&#160;&#160;&#160;&#160;&#160;Instructions &#160;&#160;&#160;&#160;&#160;&#160;&#160;</text>
<polygon fill="none" stroke="black" points="667,-72 667,-94.5 809.5,-94.5 809.5,-72 667,-72"/>
<text text-anchor="start" x="734.88" y="-78.2" font-family="Times,serif" font-size="14.00">0</text>
<polygon fill="none" stroke="black" points="811.5,-72 811.5,-94.5 912.75,-94.5 912.75,-72 811.5,-72"/>
<text text-anchor="start" x="814.5" y="-78.2" font-family="Times,serif" font-size="14.00"> &#160;&#160;&#160;&#160;&#160;&#160;&#160;none() &#160;&#160;&#160;&#160;&#160;&#160;&#160;</text>
<polygon fill="none" stroke="black" points="914.75,-72 914.75,-94.5 1253,-94.5 1253,-72 914.75,-72"/>
<text text-anchor="start" x="917.75" y="-78.2" font-family="Times,serif" font-size="14.00"> &#160;&#160;&#160;&#160;&#160;&#160;&#160;output { str(Result = ), var(start_value.1, id = 1)} &#160;&#160;&#160;&#160;&#160;&#160;&#160;</text>
<polygon fill="none" stroke="black" points="667,-47.5 667,-70 809.5,-70 809.5,-47.5 667,-47.5"/>
<text text-anchor="start" x="734.88" y="-53.7" font-family="Times,serif" font-size="14.00">1</text>
<polygon fill="none" stroke="black" points="811.5,-47.5 811.5,-70 912.75,-70 912.75,-47.5 811.5,-47.5"/>
<text text-anchor="start" x="814.5" y="-53.7" font-family="Times,serif" font-size="14.00"> &#160;&#160;&#160;&#160;&#160;&#160;&#160;none() &#160;&#160;&#160;&#160;&#160;&#160;&#160;</text>
<polygon fill="none" stroke="black" points="914.75,-47.5 914.75,-70 1253,-70 1253,-47.5 914.75,-47.5"/>
<text text-anchor="start" x="1015.25" y="-53.7" font-family="Times,serif" font-size="14.00"> &#160;&#160;&#160;&#160;&#160;&#160;&#160;ret { imm(0)} &#160;&#160;&#160;&#160;&#160;&#160;&#160;</text>
<polygon fill="none" stroke="black" points="667,-23 667,-45.5 809.5,-45.5 809.5,-23 667,-23"/>
<text text-anchor="start" x="677.88" y="-29.2" font-family="Times,serif" font-size="14.00"> &#160;&#160;&#160;&#160;&#160;&#160;&#160;Terminator &#160;&#160;&#160;&#160;&#160;&#160;&#160;</text>
<polygon fill="none" stroke="black" points="811.5,-23 811.5,-45.5 912.75,-45.5 912.75,-23 811.5,-23"/>
<text text-anchor="start" x="843" y="-29.2" font-family="Times,serif" font-size="14.00">Invalid</text>
<polygon fill="none" stroke="black" points="914.75,-23 914.75,-45.5 1081,-45.5 1081,-23 914.75,-23"/>
<text text-anchor="start" x="955.5" y="-29.2" font-family="Times,serif" font-size="14.00"> &#160;&#160;&#160;&#160;&#160;&#160;&#160;True &#160;&#160;&#160;&#160;&#160;&#160;&#160;</text>
<polygon fill="none" stroke="black" points="1083,-23 1083,-45.5 1253,-45.5 1253,-23 1083,-23"/>
<text text-anchor="start" x="1123.75" y="-29.2" font-family="Times,serif" font-size="14.00"> &#160;&#160;&#160;&#160;&#160;&#160;&#160;False &#160;&#160;&#160;&#160;&#160;&#160;&#160;</text>
<polygon fill="none" stroke="black" points="664,-20 664,-244.5 1256,-244.5 1256,-20 664,-20"/>
</g>
<!-- __BASIC_BLOCK_2_IN_FUNC_0&#45;&gt;__BASIC_BLOCK_3_IN_FUNC_0 -->
<g id="edge8" class="edge">
<title>__BASIC_BLOCK_2_IN_FUNC_0:False&#45;&gt;__BASIC_BLOCK_3_IN_FUNC_0:Prev</title>
<path fill="none" stroke="black" d="M1160.4,-290.5C1160.4,-203.21 978.35,-321.91 961.28,-253.93"/>
<polygon fill="black" stroke="black" points="964.76,-253.55 960.17,-244 957.8,-254.33 964.76,-253.55"/>
</g>
<!-- __PROGRAM__ -->
<g id="node8" class="node">
<title>__PROGRAM__</title>
<polygon fill="none" stroke="black" points="606.62,-1787 415.38,-1787 415.38,-1726 606.62,-1726 606.62,-1787"/>
<polygon fill="none" stroke="black" points="426.38,-1757.5 426.38,-1780 595.62,-1780 595.62,-1757.5 426.38,-1757.5"/>
<text text-anchor="start" x="437.5" y="-1763.7" font-family="Times,serif" font-size="14.00"> &#160;&#160;&#160;&#160;&#160;&#160;&#160;Program header &#160;&#160;&#160;&#160;&#160;&#160;&#160;</text>
<polygon fill="none" stroke="black" points="426.38,-1733 426.38,-1755.5 474.38,-1755.5 474.38,-1733 426.38,-1733"/>
<text text-anchor="start" x="429.38" y="-1739.2" font-family="Times,serif" font-size="14.00">Globals</text>
<polygon fill="none" stroke="black" points="476.38,-1733 476.38,-1755.5 595.62,-1755.5 595.62,-1733 476.38,-1733"/>
<text text-anchor="start" x="479.38" y="-1739.2" font-family="Times,serif" font-size="14.00"> &#160;&#160;&#160;&#160;&#160;&#160;&#160;Functions &#160;&#160;&#160;&#160;&#160;&#160;&#160;</text>
<polygon fill="none" stroke="black" points="423.38,-1730 423.38,-1783 598.62,-1783 598.62,-1730 423.38,-1730"/>
</g>
<!-- __PROGRAM__&#45;&gt;__START_OF__start -->
<g id="edge1" class="edge">
<title>__PROGRAM__:Functions&#45;&gt;__START_OF__start:Prev</title>
<path fill="none" stroke="black" d="M536,-1732C536,-1706.58 505.87,-1717.86 490,-1698 432.65,-1626.22 493.43,-1510.71 414.61,-1500.92"/>
<polygon fill="black" stroke="black" points="414.82,-1497.42 404.64,-1500.34 414.42,-1504.41 414.82,-1497.42"/>
</g>
<!-- __PROGRAM__&#45;&gt;__START_OF_main -->
<g id="edge3" class="edge">
<title>__PROGRAM__:Functions&#45;&gt;__START_OF_main:Prev</title>
<path fill="none" stroke="black" d="M596.62,-1744.25C623.53,-1744.25 590.02,-1694.53 596.16,-1677.44"/>
<polygon fill="black" stroke="black" points="597.78,-1680.54 604.69,-1672.51 594.28,-1674.48 597.78,-1680.54"/>
</g>
</g>
</svg>
